<?xml version="1.0" encoding="UTF-8"?>
<svg xmlns="http://www.w3.org/2000/svg" xmlns:xlink="http://www.w3.org/1999/xlink" width="21px" height="21px" viewBox="0 0 21 21" version="1.1">
  <!-- Generator: Sketch 63 (92445) - https://sketch.com -->
  <title>btn_delete_nor@2x</title>
  <desc>Created with Sketch.</desc>
  <g id="页面" stroke="none" stroke-width="1" fill="none" fill-rule="evenodd">
    <g id="详情-问答-列表" transform="translate(-730.000000, -775.000000)">
      <g id="btn_zan_nor" transform="translate(730.249378, 775.965695)">
        <path d="M15.8473786,6.06548462 L4.80955334,6.06548462 C4.39533978,6.06548462 4.05955334,6.40127106 4.05955334,6.81548462 L4.05955334,16.0998338 C4.05955334,16.5140473 4.39533978,16.8498338 4.80955334,16.8498338 L15.8473786,16.8498338 C16.2615922,16.8498338 16.5973786,16.5140473 16.5973786,16.0998338 L16.5973786,6.81548462 C16.5973786,6.40127106 16.2615922,6.06548462 15.8473786,6.06548462 Z M15.097,7.565 L15.097,15.349 L5.559,15.349 L5.559,7.565 L15.097,7.565 Z" id="形状结合" fill="#19232B" fill-rule="nonzero"></path>
        <path d="M12.9113123,3.15016622 C13.3255259,3.15016622 13.6613123,3.48595266 13.6613123,3.90016622 C13.6613123,4.27986199 13.3791584,4.59365718 13.0130829,4.64331961 L12.9113123,4.65016622 L7.33313243,4.65016622 C6.91891887,4.65016622 6.58313243,4.31437979 6.58313243,3.90016622 C6.58313243,3.52047046 6.86528631,3.20667526 7.23136187,3.15701284 L7.33313243,3.15016622 L12.9113123,3.15016622 Z" id="直线-2备份" fill="#19232B" fill-rule="nonzero"></path>
        <path d="M17.9430166,6.06548462 C18.3572301,6.06548462 18.6930166,6.40127106 18.6930166,6.81548462 C18.6930166,7.19518039 18.4108627,7.50897558 18.0447871,7.558638 L17.9430166,7.56548462 L2.05698345,7.56548462 C1.64276988,7.56548462 1.30698345,7.22969818 1.30698345,6.81548462 C1.30698345,6.43578885 1.58913733,6.12199366 1.95521289,6.07233124 L2.05698345,6.06548462 L17.9430166,6.06548462 Z" id="直线-2" fill="#19232B" fill-rule="nonzero"></path>
        <path d="M8.27587891,8.55842519 C8.65557467,8.55842519 8.96936987,8.84057907 9.01903229,9.20665463 L9.02587891,9.30842519 L9.02587891,13.6068932 C9.02587891,14.0211068 8.69009247,14.3568932 8.27587891,14.3568932 C7.89618314,14.3568932 7.58238795,14.0747393 7.53272552,13.7086638 L7.52587891,13.6068932 L7.52587891,9.30842519 C7.52587891,8.89421163 7.86166534,8.55842519 8.27587891,8.55842519 Z" id="直线" fill="#19232B" fill-rule="nonzero"></path>
        <path d="M11.7241211,8.55842519 C12.1038169,8.55842519 12.4176121,8.84057907 12.4672745,9.20665463 L12.4741211,9.30842519 L12.4741211,13.6068932 C12.4741211,14.0211068 12.1383347,14.3568932 11.7241211,14.3568932 C11.3444253,14.3568932 11.0306301,14.0747393 10.9809677,13.7086638 L10.9741211,13.6068932 L10.9741211,9.30842519 C10.9741211,8.89421163 11.3099075,8.55842519 11.7241211,8.55842519 Z" id="直线备份" fill="#19232B" fill-rule="nonzero"></path>
        <rect id="矩形" x="0" y="0" width="20" height="20"></rect>
      </g>
    </g>
  </g>
</svg>
