<?xml version="1.0" encoding="UTF-8"?>
<svg xmlns="http://www.w3.org/2000/svg" xmlns:xlink="http://www.w3.org/1999/xlink" width="21px" height="21px" viewBox="0 0 21 21" version="1.1">
  <!-- Generator: Sketch 63 (92445) - https://sketch.com -->
  <title>btn_pinglun_nor@2x</title>
  <desc>Created with Sketch.</desc>
  <g id="页面" stroke="none" stroke-width="1" fill="none" fill-rule="evenodd">
    <g id="详情-问答-列表" transform="translate(-646.000000, -775.000000)">
      <g id="btn_pinglun_nor" transform="translate(646.298206, 775.965695)">
        <path d="M10.9321515,2.5 C11.346365,2.5 11.6821515,2.83578644 11.6821515,3.25 C11.6821515,3.62969577 11.3999976,3.94349096 11.033922,3.99315338 L10.9321515,4 L4.238,4 L4.238,16 L15.247,16 L15.2477639,8.27434102 C15.2477639,7.89464525 15.5299177,7.58085006 15.8959933,7.53118764 L15.9977639,7.52434102 C16.3774596,7.52434102 16.6912548,7.8064949 16.7409173,8.17257046 L16.7477639,8.27434102 L16.7477639,16.75 C16.7477639,17.1296958 16.46561,17.443491 16.0995344,17.4931534 L15.9977639,17.5 L3.48837788,17.5 C3.10868211,17.5 2.79488691,17.2178461 2.74522449,16.8517706 L2.73837788,16.75 L2.73837788,3.25 C2.73837788,2.87030423 3.02053176,2.55650904 3.38660732,2.50684662 L3.48837788,2.5 L10.9321515,2.5 Z" id="路径" fill="#19232B" fill-rule="nonzero"></path>
        <path d="M16.0171298,2.68610522 C16.3285603,2.41300464 16.8024163,2.44407717 17.0755169,2.75550766 C17.3237902,3.03862628 17.3206807,3.45598091 17.0840811,3.73470826 L17.0061145,3.81389478 L12.796619,7.50529849 C12.4851885,7.77839907 12.0113325,7.74732654 11.7382319,7.43589605 C11.4899586,7.15277743 11.4930681,6.7354228 11.7296677,6.45669545 L11.8076343,6.37750893 L16.0171298,2.68610522 Z" id="直线-15" fill="#19232B" fill-rule="nonzero"></path>
        <path d="M9.13544578,6.19140371 C9.54965934,6.19140371 9.88544578,6.52719015 9.88544578,6.94140371 C9.88544578,7.32109947 9.6032919,7.63489467 9.23721633,7.68455709 L9.13544578,7.69140371 L6.51842952,7.69140371 C6.10421595,7.69140371 5.76842952,7.35561727 5.76842952,6.94140371 C5.76842952,6.56170794 6.0505834,6.24791275 6.41665896,6.19825032 L6.51842952,6.19140371 L9.13544578,6.19140371 Z" id="直线-14" fill="#19232B" fill-rule="nonzero"></path>
        <path d="M11.2408265,9.79656727 C11.65504,9.79656727 11.9908265,10.1323537 11.9908265,10.5465673 C11.9908265,10.926263 11.7086726,11.2400582 11.342597,11.2897207 L11.2408265,11.2965673 L6.51842952,11.2965673 C6.10421595,11.2965673 5.76842952,10.9607808 5.76842952,10.5465673 C5.76842952,10.1668715 6.0505834,9.85307631 6.41665896,9.80341388 L6.51842952,9.79656727 L11.2408265,9.79656727 Z" id="直线-14备份" fill="#19232B" fill-rule="nonzero"></path>
        <rect id="矩形" x="0" y="0" width="20" height="20"></rect>
      </g>
    </g>
  </g>
</svg>
