<?xml version="1.0" encoding="UTF-8"?>
<svg xmlns="http://www.w3.org/2000/svg" xmlns:xlink="http://www.w3.org/1999/xlink" width="21px" height="21px" viewBox="0 0 21 21" version="1.1">
  <!-- Generator: Sketch 63 (92445) - https://sketch.com -->
  <title>btn_pinglun_nor@2x</title>
  <desc>Created with Sketch.</desc>
  <g id="页面" stroke="none" stroke-width="1" fill="none" fill-rule="evenodd">
    <g id="详情-问答-列表" transform="translate(-811.000000, -775.000000)">
      <g id="btn_zan_nor备份-3" transform="translate(811.500000, 775.965695)">
        <path d="M17.6239569,3.42895508 L2.37604315,3.42895508 C1.96182958,3.42895508 1.62604315,3.76474152 1.62604315,4.17895508 L1.62604315,15.2380536 L1.63288992,15.3398254 C1.6825535,15.7059052 1.99635581,15.9880603 2.37605627,15.9880536 L7.697,15.987 L9.46973534,17.7588163 L9.55386168,17.8314233 C9.84749632,18.0492395 10.2641513,18.0249862 10.5303864,17.7586946 L12.301,15.987 L17.6239437,15.9880536 C18.0381624,15.9880609 18.3739569,15.6522723 18.3739569,15.2380536 L18.3739569,4.17895508 C18.3739569,3.76474152 18.0381704,3.42895508 17.6239569,3.42895508 Z M16.873,4.928 L16.873,14.488 L11.9900563,14.4879551 L11.8720034,14.497299 C11.7167992,14.5220335 11.5721848,14.5951293 11.4596568,14.7076813 L9.999,16.167 L8.53930781,14.7075596 L8.4492422,14.630724 C8.32203485,14.5385069 8.16813791,14.4879523 8.00903002,14.4879551 L3.126,14.488 L3.126,4.928 L16.873,4.928 Z" id="形状结合" fill="#19232B" fill-rule="nonzero"></path>
        <path d="M14.6674805,7.19264349 C15.081694,7.19264349 15.4174805,7.52842993 15.4174805,7.94264349 C15.4174805,8.32233926 15.1353266,8.63613445 14.769251,8.68579688 L14.6674805,8.69264349 L5.33251953,8.69264349 C4.91830597,8.69264349 4.58251953,8.35685705 4.58251953,7.94264349 C4.58251953,7.56294773 4.86467341,7.24915253 5.23074897,7.19949011 L5.33251953,7.19264349 L14.6674805,7.19264349 Z" id="直线-2" fill="#19232B" fill-rule="nonzero"></path>
        <path d="M11.3316096,11.0461591 C11.7458231,11.0461591 12.0816096,11.3819456 12.0816096,11.7961591 C12.0816096,12.1758549 11.7994557,12.4896501 11.4333801,12.5393125 L11.3316096,12.5461591 L5.33251953,12.5461591 C4.91830597,12.5461591 4.58251953,12.2103727 4.58251953,11.7961591 C4.58251953,11.4164634 4.86467341,11.1026682 5.23074897,11.0530057 L5.33251953,11.0461591 L11.3316096,11.0461591 Z" id="直线-2备份" fill="#19232B" fill-rule="nonzero"></path>
        <rect id="矩形" x="0" y="0" width="20" height="20"></rect>
      </g>
    </g>
  </g>
</svg>
