<?xml version="1.0" encoding="UTF-8"?>
<svg xmlns="http://www.w3.org/2000/svg" xmlns:xlink="http://www.w3.org/1999/xlink" width="17px" height="17px" viewBox="0 0 17 17" version="1.1">
  <!-- Generator: Sketch 63 (92445) - https://sketch.com -->
  <title>ico-sp-sei@2x</title>
  <desc>Created with Sketch.</desc>
  <g id="页面" stroke="none" stroke-width="1" fill="none" fill-rule="evenodd">
    <g id="详情-未购买-目录" transform="translate(-141.000000, -670.000000)" fill-rule="nonzero">
      <g id="ico-sp-sei-" transform="translate(141.924088, 670.249458)">
        <g id="ico-sp-sei-2" transform="translate(0.500000, 0.360743)">
          <g id="ico-sp-sei">
            <polygon id="路径" fill="#000000" points="8.68051683 7.26201823 8.68834912 7.26985052 8.68946801 7.26873162"></polygon>
            <path d="M7.32878886,0.282703125 C3.43730263,0.282703125 0.282703125,3.43730263 0.282703125,7.32878886 C0.282703125,11.2202751 3.43730263,14.3748746 7.32878886,14.3748746 C11.2202751,14.3748746 14.3748746,11.2202751 14.3748746,7.32878886 C14.3748746,3.43730263 11.2202751,0.282703125 7.32878886,0.282703125 Z M10.2338231,7.27635654 C10.2319336,7.29540852 10.2287846,7.31398814 10.2251631,7.33272522 C10.2213842,7.35193466 10.2174478,7.37098665 10.2117795,7.39003863 C10.2061111,7.40924807 10.1988682,7.42767024 10.1913104,7.44624987 C10.1842249,7.46356985 10.1771395,7.48073239 10.168322,7.49742256 C10.1580875,7.5169469 10.146121,7.53521162 10.1338395,7.55363379 C10.127069,7.56355342 10.1225028,7.57441777 10.1151025,7.58402249 C10.1116385,7.58843122 10.1072297,7.5915803 10.1036083,7.59583157 C10.0845563,7.61944974 10.0626701,7.641021 10.0395243,7.66211989 C10.02866,7.67203952 10.0187403,7.68321878 10.0072462,7.69235114 C10.0047269,7.69424059 10.0029949,7.69675986 10.0004756,7.69864932 L6.19417224,10.5965981 L6.19417224,10.5965981 C6.08923201,10.6767912 5.96079328,10.7201757 5.82872051,10.7200427 C5.64670319,10.7200427 5.46657532,10.6380086 5.34785468,10.4819713 C5.24487948,10.3467179 5.20850751,10.182178 5.23181076,10.0262982 C5.22881913,10.0015778 5.22425295,9.97732983 5.22425295,9.95197966 L5.22425295,4.32030707 C5.22425295,4.31463871 5.2258275,4.30944271 5.2258275,4.30393181 C5.22645731,4.28188819 5.22944895,4.26015948 5.23244058,4.23811586 C5.23495985,4.22016605 5.23669185,4.20221625 5.24062821,4.18489626 C5.24503694,4.16568682 5.25180748,4.14726465 5.25810565,4.12837012 C5.26456129,4.10931813 5.2703871,4.09010869 5.27873218,4.07200143 C5.28597509,4.05609854 5.2952649,4.04098291 5.30392489,4.02539492 C5.3149467,4.00587057 5.32596851,3.98634622 5.33903723,3.96823896 C5.34218632,3.96383024 5.34423323,3.9587917 5.34753977,3.95438297 C5.35525504,3.94430589 5.3647023,3.93659062 5.37288993,3.92714336 C5.38690338,3.91092555 5.40091682,3.8948652 5.41666227,3.88022194 C5.43130553,3.8665234 5.44673606,3.85455687 5.46232405,3.84259033 C5.47743968,3.83109616 5.49239785,3.81975944 5.5084582,3.80968235 C5.52593564,3.798818 5.54388544,3.78937073 5.56230761,3.78039583 C5.57899778,3.7722082 5.5955305,3.76433548 5.61300794,3.75756494 C5.63253229,3.75016458 5.65221409,3.74449622 5.67221081,3.73914277 C5.6898457,3.73441914 5.70716569,3.72985296 5.7254304,3.72670387 C5.74763148,3.72292496 5.76983255,3.72135042 5.79234854,3.71993333 C5.80431507,3.71914606 5.81565179,3.71631188 5.82777578,3.71631188 C5.83312923,3.71631188 5.83816777,3.71772897 5.84352122,3.71788642 C5.86619466,3.71851624 5.88855319,3.72150787 5.91106918,3.72465696 C5.92854662,3.72701878 5.94602406,3.72875078 5.96302914,3.73268714 C5.98239603,3.73709586 6.00113311,3.74402386 6.0201851,3.75047949 C6.03907963,3.75693512 6.05813161,3.76276093 6.07623887,3.77094856 C6.09229922,3.77819147 6.10741485,3.78748128 6.12284538,3.79629873 C6.14236973,3.80732054 6.16189408,3.81818489 6.18000134,3.83125361 C6.18441007,3.8344027 6.18944861,3.83644961 6.19385733,3.83975615 L10.0000033,6.73754748 C10.0050418,6.74148384 10.0088207,6.74636492 10.0137018,6.75030129 C10.0297622,6.76321255 10.0444054,6.77785581 10.0592061,6.79265653 C10.0741643,6.8076147 10.0888076,6.82225796 10.1018763,6.83847577 C10.1058126,6.84335685 10.1106937,6.8469783 10.1146301,6.85201685 C10.1220304,6.86177902 10.1265966,6.87248592 10.1333672,6.88240555 C10.1458061,6.90082772 10.1577726,6.91924989 10.1678497,6.93861678 C10.1766671,6.95546441 10.1837526,6.97246949 10.190838,6.98978947 C10.1983958,7.0083691 10.2056387,7.02679126 10.2113071,7.0460007 C10.2169755,7.06489524 10.2209118,7.08394722 10.2246907,7.10331412 C10.2283122,7.12205119 10.2316187,7.14063082 10.2333507,7.1596828 C10.2352402,7.1790497 10.2357125,7.19841659 10.2355551,7.21778349 C10.2361849,7.23762275 10.2357125,7.25698964 10.2338231,7.27635654 L10.2338231,7.27635654 Z" id="形状" fill="#667280"></path>
          </g>
        </g>
      </g>
    </g>
  </g>
</svg>
