<?xml version="1.0" encoding="UTF-8"?>
<svg xmlns="http://www.w3.org/2000/svg" xmlns:xlink="http://www.w3.org/1999/xlink" width="17px" height="17px" viewBox="0 0 17 17" version="1.1">
  <!-- Generator: Sketch 63 (92445) - https://sketch.com -->
  <title>ico-jdks@2x</title>
  <desc>Created with Sketch.</desc>
  <g id="页面" stroke="none" stroke-width="1" fill="none" fill-rule="evenodd">
    <g id="详情-未购买-目录" transform="translate(-141.000000, -768.000000)" fill="#667280" fill-rule="nonzero">
      <g id="ico-sp-sei-备份-4" transform="translate(140.924088, 767.072532)">
        <g id="ico-jdks-2" transform="translate(0.749999, 0.841230)">
          <g id="ico-jdks" transform="translate(1.000000, 1.000000)">
            <path d="M7.04608574,1.00808251e-12 C10.937572,1.00808251e-12 14.0921715,3.1545995 14.0921715,7.04608574 C14.0921715,10.937572 10.937572,14.0921715 7.04608574,14.0921715 C3.1545995,14.0921715 1.00808251e-12,10.937572 1.00808251e-12,7.04608574 C1.00808251e-12,3.1545995 3.1545995,1.00808251e-12 7.04608574,1.00808251e-12 Z M3.54440944,8.7228979 L3.16273825,10.9296121 L5.36469197,10.5431804 L3.54440944,8.7228979 Z M7.95177191,4.32383924 L3.79976646,8.47584469 L5.61627007,10.2923287 L9.7682657,6.14033304 L7.95177191,4.32383924 Z M9.51131535,3.27234152 C9.47026271,3.23519719 9.23372169,3.04165567 8.99718879,3.27820642 L8.99718879,3.27820642 L8.23090179,4.04485659 L10.0471404,5.861105 L10.8137906,5.09445483 C11.0739866,4.83425882 10.8137906,4.57406282 10.8137906,4.574053 Z" id="形状备份-3"></path>
          </g>
        </g>
      </g>
    </g>
  </g>
</svg>
