<?xml version="1.0" encoding="UTF-8"?>
<svg xmlns="http://www.w3.org/2000/svg" xmlns:xlink="http://www.w3.org/1999/xlink" width="17px" height="17px" viewBox="0 0 17 17" version="1.1">
  <!-- Generator: Sketch 63 (92445) - https://sketch.com -->
  <title>icon_zhankai@2x</title>
  <desc>Created with Sketch.</desc>
  <g id="页面" stroke="none" stroke-width="1" fill="none" fill-rule="evenodd">
    <g id="详情-问答-列表" transform="translate(-872.000000, -585.000000)">
      <g id="icon_zhankai" transform="translate(872.862505, 585.569266)">
        <path d="M7.71862451,10.8693857 C7.73214612,10.8761465 7.74397753,10.8879779 7.75665405,10.8930485 L7.75665398,10.8930485 C8.00160647,11.0148037 8.29724191,10.9634777 8.48682115,10.7662833 L12.8897968,6.10977745 L12.8897968,6.10977744 C13.1301659,5.85587282 13.1191935,5.45518474 12.8652888,5.2148156 C12.6113842,4.97444646 12.2106961,4.98541891 11.9703269,5.23932359 L8.01863521,9.41919256 L4.00947662,5.25622561 L4.00947665,5.25622564 C3.75906864,5.01295675 3.35886451,5.01874503 3.1155976,5.26915318 C2.88405581,5.50749011 2.87656808,5.88440511 3.09846021,6.13175029 L7.54369086,10.7460011 C7.55214187,10.753607 7.56566348,10.7569874 7.57411449,10.7671286 C7.5808753,10.7730443 7.5851008,10.7798051 7.59186161,10.7882562 C7.62989115,10.8262857 7.6763717,10.8440328 7.71862674,10.8685407 L7.71862451,10.8693857 Z" fill="#80878C" fill-rule="nonzero" transform="translate(8.000000, 8.000000) scale(1, -1) translate(-8.000000, -8.000000) "></path>
        <rect id="矩形" x="0" y="0" width="16" height="16"></rect>
      </g>
    </g>
  </g>
</svg>
