<?xml version="1.0" encoding="UTF-8"?>
<svg xmlns="http://www.w3.org/2000/svg" xmlns:xlink="http://www.w3.org/1999/xlink" width="17px" height="17px" viewBox="0 0 17 17" version="1.1">
  <!-- Generator: Sketch 63 (92445) - https://sketch.com -->
  <title>icon_weixin@2x</title>
  <desc>Created with Sketch.</desc>
  <g id="页面" stroke="none" stroke-width="1" fill="none" fill-rule="evenodd">
    <g id="详情-未购买-课程介绍" transform="translate(-626.000000, -324.000000)">
      <g id="icon_shoucang备份" transform="translate(626.500000, 324.500000)">
        <path d="M10.6734696,5.59547327 C10.8473104,5.59547327 11.0187523,5.60819115 11.1885262,5.62664626 C10.7259754,3.49492623 8.42241071,1.91070814 5.79324884,1.91070814 C2.85364145,1.91070814 0.445532055,3.89354972 0.445532055,6.41115256 C0.445532055,7.86415384 1.24686507,9.05753345 2.585445,9.98314187 L2.05067159,11.5753828 L3.91992327,10.6475091 C4.5892115,10.7783293 5.12560093,10.9132356 5.79325405,10.9132356 C5.96098453,10.9132356 6.12706325,10.9050649 6.29234315,10.8919562 C6.18775799,10.5384493 6.12706394,10.1677286 6.12706394,9.78343923 C6.1270817,7.47170072 8.13328657,5.59547118 10.673472,5.59547118 L10.6734696,5.59547327 Z M7.79864176,4.16053633 C8.20135129,4.16053633 8.46791263,4.42299427 8.46791263,4.82120985 C8.46791263,5.21777295 8.20135129,5.48351674 7.79864176,5.48351674 C7.39754825,5.48351674 6.99565628,5.21777295 6.99565628,4.82120985 C6.99565628,4.42299427 7.39756561,4.16053633 7.79864176,4.16053633 L7.79864176,4.16053633 Z M4.05605931,5.48349938 C3.65496579,5.48349938 3.25060553,5.2177556 3.25060553,4.82119249 C3.25060553,4.42297691 3.65496753,4.16051897 4.05605931,4.16051897 C4.45670846,4.16051897 4.72369507,4.42297691 4.72369507,4.82119249 C4.72369507,5.21777469 4.45670846,5.48349938 4.05605931,5.48349938 Z M15.5544679,9.71987853 C15.5544679,7.60416245 13.4149716,5.87967541 11.0121911,5.87967541 C8.46790916,5.87967541 6.46415135,7.60415724 6.46415135,9.71987853 C6.46415135,11.8386669 8.4678918,13.5594568 11.0121911,13.5594568 C11.5444944,13.5594568 12.0817379,13.4273755 12.6164748,13.2945305 L14.0834544,14.0892919 L13.6811181,12.767129 C14.754803,11.9698977 15.5544679,10.9132564 15.5544679,9.71988547 L15.5544679,9.71987853 Z M9.53744905,9.05755428 C9.27131471,9.05755428 9.00269299,8.79550598 9.00269299,8.52810973 C9.00269299,8.26442632 9.27131471,7.99909218 9.53744905,7.99909218 C9.94181105,7.99909218 10.2067373,8.26442632 10.2067373,8.52810973 C10.2067373,8.79550598 9.94181105,9.05755428 9.53744905,9.05755428 Z M12.4786881,9.05755428 C12.2146141,9.05755428 11.9476275,8.79550598 11.9476275,8.52810973 C11.9476275,8.26442632 12.2146141,7.99909218 12.4786881,7.99909218 C12.8797816,7.99909218 13.1479763,8.26442632 13.1479763,8.52810973 C13.1479763,8.79550598 12.8797816,9.05755428 12.4786881,9.05755428 L12.4786881,9.05755428 Z" id="形状" fill="#58CC74" fill-rule="nonzero"></path>
        <rect id="矩形" x="0" y="0" width="16" height="16"></rect>
      </g>
    </g>
  </g>
</svg>
