<?xml version="1.0" encoding="UTF-8"?>
<svg xmlns="http://www.w3.org/2000/svg" xmlns:xlink="http://www.w3.org/1999/xlink" width="72px" height="72px" viewBox="0 0 72 72" version="1.1">
  <!-- Generator: Sketch 63 (92445) - https://sketch.com -->
  <title>icon_success@2x</title>
  <desc>Created with Sketch.</desc>
  <g id="页面" stroke="none" stroke-width="1" fill="none" fill-rule="evenodd">
    <g id="详情-问答-提问-结果页" transform="translate(-647.000000, -210.000000)" fill="#27BA9B" fill-rule="nonzero">
      <g id="icon_success" transform="translate(647.000000, 210.000000)">
        <path d="M61.3046733,61.4517081 C54.5410767,68.1270513 45.9542821,71.5971031 35.573599,71.8617818 C25.6341014,71.5971031 17.3413763,68.1270513 10.666033,61.4517081 C3.99068971,54.7763648 0.520637977,46.4541676 0.255959215,36.5440607 C0.520637977,26.1634589 3.99068971,17.5766644 10.666033,10.8129863 C17.3413763,4.04947103 25.6634921,0.550028636 35.5736804,0.285349874 C45.9542821,0.550028636 54.5410767,4.04947103 61.3046733,10.8130677 C68.06827,17.5766644 71.5677124,26.1634589 71.8323912,36.5441421 C71.5971031,46.4541676 68.06827,54.7763648 61.3046733,61.4517081 L61.3046733,61.4517081 Z M29.5452573,50.0123913 C29.8687174,50.3359328 30.2215681,50.4829675 30.6332816,50.5122767 C31.044995,50.5417488 31.4273179,50.3947141 31.7213873,50.071254 L55.5408476,26.6633444 C55.8643891,26.3398843 56.0114238,25.9870336 56.0114238,25.5753201 C56.0114238,25.1636066 55.8643891,24.7812838 55.5408476,24.4872144 L55.6879637,24.6342491 C55.3645036,24.310789 54.9821808,24.1637543 54.5410767,24.1343636 C54.0999725,24.104973 53.6882591,24.2520077 53.3354083,24.5754678 L31.8095593,42.5137025 C31.4860992,42.7782998 31.1037764,42.8959439 30.6332816,42.8959439 C30.1627054,42.8959439 29.7510733,42.7782998 29.3688319,42.5724838 L21.6936363,36.632314 C21.3407041,36.3676353 20.9289907,36.2793819 20.5173586,36.308854 C20.1057266,36.338326 19.752713,36.5734513 19.4881156,36.9263835 L19.2528275,37.2498435 C18.9882302,37.6026943 18.8999768,38.0144078 18.9293675,38.4555933 C18.9881488,38.896616 19.1351835,39.2789388 19.3998622,39.6023989 L29.5452573,50.0123099 L29.5452573,50.0123913 Z"></path>
      </g>
    </g>
  </g>
</svg>
