<?xml version="1.0" encoding="UTF-8"?>
<svg xmlns="http://www.w3.org/2000/svg" xmlns:xlink="http://www.w3.org/1999/xlink" width="20px" height="21px" viewBox="0 0 20 21" version="1.1">
  <title>icon_menu_gongzuotai备份 34</title>
  <defs>
    <filter id="filter-1">
      <feColorMatrix in="SourceGraphic" type="matrix" values="0 0 0 0 0.152941 0 0 0 0 0.141176 0 0 0 0 0.129412 0 0 0 1.000000 0"></feColorMatrix>
    </filter>
  </defs>
  <g id="页面1" stroke="none" stroke-width="1" fill="none" fill-rule="evenodd">
    <g id="icon_menu_gongzuotai备份-34" transform="translate(-46.000000, -661.000000)" filter="url(#filter-1)">
      <g transform="translate(46.000000, 661.672706)">
        <g id="全部订单" transform="translate(2.500000, 2.000000)" fill="#000000" fill-rule="nonzero">
          <path d="M11.3844502,7.44724758 C11.3574427,7.06466219 11.0572889,6.77621907 10.6861466,6.77621907 L3.8425388,6.77621907 C3.47439337,6.77621907 3.16326288,7.09054525 3.16326288,7.46254576 C3.16326288,7.83447475 3.47439337,8.14872942 3.8425388,8.14872942 L10.7055964,8.14872942 C11.0738657,8.14872942 11.384998,7.83447475 11.384998,7.46254576 L11.3844624,7.44724805 L11.3844502,7.44724758 Z M5.689619,2.11936342 L8.87809511,2.11936342 C9.36224857,2.11936342 9.77130661,1.65216705 9.77130661,1.09916479 C9.77130661,0.536648712 9.36185608,0.0790202474 8.85860171,0.0790202474 L5.68961028,0.0790202474 C5.18635591,0.0790202474 4.7769769,0.536631268 4.7769769,1.09916479 C4.7769769,1.66170006 5.18637335,2.11936342 5.68961028,2.11936342 L5.689619,2.11936342 Z M10.7055738,4.22299431 L3.84253357,4.22299431 C3.47438813,4.22299431 3.16325764,4.53724898 3.16325764,4.909321 C3.16325764,5.28132151 3.47438813,5.59557618 3.84253357,5.59557618 L10.7055912,5.59557618 C11.0738605,5.59557618 11.3849927,5.28132151 11.3849927,4.909321 C11.3849927,4.53724898 11.073843,4.22299431 10.7055738,4.22299431 L10.7055738,4.22299431 Z M10.6861526,9.54540113 L3.84254473,9.54540113 C3.4743993,9.54540113 3.16326881,9.85972732 3.16326881,10.2317278 C3.16326881,10.6036568 3.4743993,10.9179115 3.84254473,10.9179115 L10.7056024,10.9179115 C11.0738717,10.9179115 11.3850039,10.6036568 11.3850039,10.2317278 L11.3844684,10.2164301 C11.3574609,9.83386217 11.0572896,9.54540113 10.6861648,9.54540113 L10.6861526,9.54540113 Z M13.8138372,1.13415699 C13.4489589,0.739397597 12.9254087,0.530726553 12.2998265,0.530726553 L11.3860505,0.530726553 C11.0219049,0.530726553 10.6289475,0.770616704 10.6289475,1.15803925 C10.6289475,1.5242554 11.0039466,1.88367198 11.3860505,1.88367198 L12.2998265,1.88367198 C12.7256462,1.88367198 13.0008443,2.16160175 13.0008443,2.5918121 L13.0008443,13.2169666 C13.0008443,13.647177 12.7256288,13.9251067 12.2998265,13.9251067 L2.46224051,13.9251068 C2.02124816,13.9251068 1.52799081,13.6222935 1.52799081,13.2169666 L1.52799081,2.59182956 C1.52799081,2.16161921 1.80313481,1.88368944 2.22900864,1.88368944 L3.37607054,1.88368944 C3.71262008,1.88368944 3.93872966,1.59205061 3.93872966,1.15805671 C3.93872966,0.765242298 3.72838227,0.530726553 3.37607054,0.530726553 L2.22900864,0.530726553 C0.951425516,0.530726553 0.188733505,1.30860512 0.188733505,2.6114695 L0.188733505,13.1187565 C0.188733505,14.4304684 1.02773327,15.2780504 2.3262053,15.2780504 L12.2025687,15.2780504 C13.5810065,15.2780504 14.3401103,14.511165 14.3401103,13.1187565 L14.3401103,2.61145206 C14.3401103,2.01746568 14.1581614,1.50662501 13.8138476,1.13416049 L13.8138372,1.13415699 Z" id="形状"></path>
        </g>
        <rect id="矩形" x="0" y="0" width="20" height="20"></rect>
      </g>
    </g>
  </g>
</svg>
