<?xml version="1.0" encoding="UTF-8"?>
<svg xmlns="http://www.w3.org/2000/svg" xmlns:xlink="http://www.w3.org/1999/xlink" width="20px" height="21px" viewBox="0 0 20 21" version="1.1">
  <title>icon_menu_gongzuotai备份 32</title>
  <defs>
    <filter id="filter-1">
      <feColorMatrix in="SourceGraphic" type="matrix" values="0 0 0 0 0.152941 0 0 0 0 0.141176 0 0 0 0 0.129412 0 0 0 1.000000 0"></feColorMatrix>
    </filter>
  </defs>
  <g id="页面1" stroke="none" stroke-width="1" fill="none" fill-rule="evenodd">
    <g id="icon_menu_gongzuotai备份-32" transform="translate(-46.000000, -603.000000)" filter="url(#filter-1)">
      <g transform="translate(46.000000, 603.672706)">
        <g id="用户管理" transform="translate(2.000000, 1.500000)" fill="#304156" fill-rule="nonzero">
          <path d="M7.92634031,1.49654859 C6.40469187,1.49654859 5.16557223,2.73328929 5.16557223,4.25511163 C5.16557223,5.77547469 6.40469904,7.01358503 7.92634031,7.01358503 C9.44798875,7.01358503 10.6871084,5.77537609 10.6871084,4.25511163 C10.6871084,2.73328033 9.44798158,1.49663823 7.92634031,1.49663823 L7.92634031,1.49654859 Z M7.92634031,8.46851925 C5.60091592,8.46851925 3.70945481,6.57714778 3.70945481,4.25512955 C3.70945481,1.93162337 5.60091592,0.0417398541 7.92634031,0.0417398541 C10.2517647,0.0417398541 12.1432258,1.93164129 12.1432258,4.25512955 C12.1432258,6.57716571 10.2517647,8.46851925 7.92634031,8.46851925 L7.92634031,8.46851925 Z M11.6575785,15.1502189 C12.9986805,15.1502189 14.0892931,14.0605223 14.0892931,12.7206196 C14.0892931,11.3805269 12.9986787,10.2909128 11.6575785,10.2909128 L11.5061296,10.2909128 C11.4988784,10.2996326 11.496033,10.3112896 11.4872215,10.3200094 L8.44108851,13.3621983 L8.4410885,13.3621984 C8.30444501,13.4990575 8.11900696,13.5759925 7.92561211,13.5760625 L7.92561212,13.5760625 C7.73270668,13.5756944 7.5478362,13.4987746 7.41160396,13.3621984 L4.3669231,10.3200094 C4.35820332,10.3112896 4.35526613,10.2996326 4.34654635,10.2909128 L4.19656611,10.2909128 C2.85546411,10.2909128 1.76485145,11.3806094 1.76485145,12.7205121 C1.76485145,14.0605134 2.8554659,15.1502189 4.19656611,15.1502189 L11.6575724,15.1502189 L11.6575785,15.1502189 Z M9.45597711,10.2909128 L6.39670352,10.2909128 L7.92560171,11.8199957 L9.45597711,10.2908214 L9.45597711,10.2909128 Z M11.6575785,8.83599474 C13.8024582,8.83599474 15.5454105,10.5790331 15.5454105,12.7205282 C15.5454105,14.862199 13.8023722,16.6051513 11.6575785,16.6051513 L4.1965722,16.6051513 C2.05169245,16.6051513 0.308740123,14.8621129 0.308740123,12.7205282 C0.308740123,10.5789471 2.0517785,8.83599474 4.1965722,8.83599474 L11.6575785,8.83599474 Z" id="形状"></path>
        </g>
        <rect id="矩形" x="0" y="0" width="20" height="20"></rect>
      </g>
    </g>
  </g>
</svg>
