<?xml version="1.0" encoding="UTF-8"?>
<svg xmlns="http://www.w3.org/2000/svg" xmlns:xlink="http://www.w3.org/1999/xlink" width="20px" height="21px" viewBox="0 0 20 21" version="1.1">
  <title>icon_menu_gongzuotai备份 33</title>
  <defs>
    <filter id="filter-1">
      <feColorMatrix in="SourceGraphic" type="matrix" values="0 0 0 0 0.152941 0 0 0 0 0.141176 0 0 0 0 0.129412 0 0 0 1.000000 0"></feColorMatrix>
    </filter>
  </defs>
  <g id="页面1" stroke="none" stroke-width="1" fill="none" fill-rule="evenodd">
    <g id="icon_menu_gongzuotai备份-33" transform="translate(-46.000000, -545.000000)" filter="url(#filter-1)">
      <g transform="translate(46.000000, 545.672706)">
        <g id="icon_icon_-我的问题_s" transform="translate(2.000000, 2.500000)" fill="#000000" fill-rule="nonzero">
          <path d="M7.94321617,8.74221827 C7.5756165,8.74221827 7.27315077,8.44870845 7.26399131,8.07907335 L7.25361059,7.65509211 C7.24180506,7.17167616 7.51170382,6.7167563 7.94138428,6.49611508 C8.53715628,6.19039265 8.93569457,5.80630596 9.00774899,5.46862719 C9.08102467,5.12484212 8.80786922,4.78431374 8.71790296,4.67236478 C8.44352624,4.3304116 7.86749797,4.33855335 7.46488881,4.51991066 C7.27823936,4.60397415 6.85262978,4.85005831 6.93282594,5.3182085 C6.95908306,5.47106971 6.97007441,5.57996552 6.96864961,5.67135658 C6.96274684,6.08414292 6.67778586,6.26081873 6.59066922,6.30519122 C6.2560436,6.47535364 5.8467175,6.34223615 5.67655509,6.00761054 C5.61549202,5.88772338 5.59350931,5.75806613 5.60572193,5.63349747 C5.60327941,5.61456792 5.59920853,5.586886 5.59269514,5.54800918 C5.43047092,4.60295643 5.9462503,3.7126569 6.90656882,3.28033038 C7.3718694,3.07088405 7.89741887,2.9921127 8.3863305,3.05907853 C8.95116388,3.13622154 9.44536765,3.40713801 9.77795782,3.82175625 C10.411996,4.61191235 10.4317397,5.30782778 10.3368884,5.75257046 C10.2365415,6.22275608 9.96501435,6.65996765 9.52963468,7.05158546 C9.21536342,7.33430746 8.8666933,7.54517859 8.61348512,7.67870317 L8.62244103,8.0456922 C8.63160049,8.42102653 8.33483398,8.73265172 7.95949966,8.74201472 C7.95461461,8.74201472 7.94891539,8.74221827 7.94321617,8.74221827 L7.94321617,8.74221827 Z" id="路径"></path>
          <path d="M8.05577576,14.4725803 C7.72013243,14.4725803 7.38509973,14.3604276 7.11011238,14.1375474 L5.26010496,12.6370243 L2.24582838,12.6370243 C1.11738289,12.6370243 0.199401429,11.7190428 0.199401429,10.5905973 L0.199401429,2.23920507 C0.199401429,1.11075957 1.11738289,0.192778114 2.24582838,0.192778114 L13.815855,0.192778114 C14.9443005,0.192778114 15.8622821,1.11075957 15.8622821,2.23920507 L15.8622821,10.5901902 C15.8624855,11.1367047 15.6495789,11.6506522 15.2630497,12.037385 C14.8765205,12.4239142 14.362573,12.6368207 13.8160585,12.6368207 L11.04522,12.6368207 L8.94465049,14.1809022 L8.9446505,14.1809022 C8.68710276,14.3705419 8.37560988,14.4727552 8.05577577,14.4725803 L8.05577576,14.4725803 Z M2.24582838,1.55204201 C1.86703382,1.55204201 1.55886887,1.86020696 1.55886887,2.23900152 L1.55886887,10.5903938 C1.55886887,10.9691884 1.86703382,11.2773533 2.24582838,11.2773533 L5.74229966,11.2773533 L7.96662368,13.0815634 L7.96662367,13.0815634 C8.01660277,13.122048 8.08760202,13.1237205 8.13943215,13.0856343 L10.5992561,11.2773533 L13.8160585,11.2773533 C13.9994512,11.2773533 14.1720562,11.2059095 14.3017134,11.0760487 C14.4313707,10.9463915 14.5028145,10.7737866 14.5028145,10.5901903 L14.5028145,2.23879799 C14.5028145,1.86000342 14.1946495,1.55183847 13.815855,1.55183847 L2.24582837,1.55183847 L2.24582838,1.55204201 Z" id="形状"></path>
          <path d="M7.31100987,9.84176058 L7.31100987,9.84176049 C7.31100987,10.256568 7.64727808,10.5928362 8.06208561,10.5928362 C8.47689314,10.5928362 8.81316135,10.256568 8.81316135,9.84176049 C8.81316135,9.84176047 8.81316135,9.84176046 8.81316135,9.84176044 L8.81316135,9.84176044 C8.81316135,9.42695291 8.47689314,9.0906847 8.06208561,9.0906847 C7.64727808,9.0906847 7.31100987,9.42695291 7.31100987,9.84176044 L7.31100987,9.84176058 Z" id="路径"></path>
        </g>
        <rect id="矩形" x="0" y="0" width="20" height="20"></rect>
      </g>
    </g>
  </g>
</svg>
