<?xml version="1.0" encoding="UTF-8"?>
<svg xmlns="http://www.w3.org/2000/svg" xmlns:xlink="http://www.w3.org/1999/xlink" width="20px" height="21px" viewBox="0 0 20 21" version="1.1">
  <title>icon_menu_gongzuotai备份 35</title>
  <defs>
    <filter id="filter-1">
      <feColorMatrix in="SourceGraphic" type="matrix" values="0 0 0 0 0.152941 0 0 0 0 0.141176 0 0 0 0 0.129412 0 0 0 1.000000 0"></feColorMatrix>
    </filter>
  </defs>
  <g id="页面1" stroke="none" stroke-width="1" fill="none" fill-rule="evenodd">
    <g id="icon_menu_gongzuotai备份-35" transform="translate(-46.000000, -175.000000)" filter="url(#filter-1)">
      <g transform="translate(46.000000, 175.922706)">
        <g id="主页" transform="translate(1.500000, 2.321515)" fill-rule="nonzero">
          <path d="M11.9793177,15.5840354 L4.14447759,15.5840354 C3.36117549,15.5840354 2.62280502,15.2769722 2.06543446,14.7194197 C1.50806391,14.1618673 1.20081884,13.4234968 1.20081884,12.6403766 L1.20081884,5.26995136 C1.20081884,4.90322191 1.49805889,4.60598186 1.86478834,4.60598186 C2.23151779,4.60598186 2.52875784,4.90322191 2.52875784,5.26995136 L2.52875784,12.6403766 C2.52875784,13.5311872 3.25348509,14.2560964 4.14447759,14.2560964 L11.9794996,14.2560964 C12.8703102,14.2560964 13.5952193,13.5313691 13.5952193,12.6403766 L13.5952193,5.26995136 C13.5952193,4.90322191 13.8924594,4.60598186 14.2591888,4.60598186 C14.6259183,4.60598186 14.9231583,4.90322191 14.9231583,5.26995136 L14.9231583,12.6403766 C14.9231583,13.4236787 14.6160952,14.1620492 14.0585427,14.7194197 C13.5009902,15.2767903 12.7626198,15.5840354 11.9793177,15.5840354 Z" id="路径" fill="#AEB5C4"></path>
          <path d="M8.06189762,11.7954072 C6.72977471,11.7954072 5.64614011,10.7117726 5.64614011,9.37964969 C5.64614011,8.04752678 6.72977471,6.96389217 8.06189762,6.96389217 C9.39402054,6.96389217 10.4776551,8.04752678 10.4776551,9.37964969 C10.4776551,10.7117726 9.39402054,11.7954072 8.06189762,11.7954072 Z M8.06189762,8.29183117 C7.46214216,8.29183117 6.9740791,8.77989423 6.9740791,9.37964969 C6.9740791,9.97940515 7.46214216,10.4674682 8.06189762,10.4674682 C8.66165308,10.4674682 9.14971614,9.97940515 9.14971614,9.37964969 C9.14971614,8.77989423 8.66165308,8.29183117 8.06189762,8.29183117 Z" id="svg" fill="#F38931"></path>
          <path d="M0.688198007,6.15384941 C0.469906666,6.15384941 0.25616306,6.0463409 0.129190263,5.84915106 C-0.0692729487,5.54081454 0.0198626825,5.12988108 0.328199203,4.93141787 L7.70244455,0.184672646 C8.01078107,-0.013790566 8.42171452,0.0753450652 8.62017773,0.383681586 C8.81864094,0.692018106 8.72950531,1.10295156 8.42116879,1.30141477 L1.04692345,6.04797809 L1.04692343,6.04797809 C0.940054177,6.11711096 0.815478219,6.15384941 0.688197995,6.15384941 L0.688198007,6.15384941 Z" id="路径" fill="#AEB5C4"></path>
          <path d="M15.4355972,6.15384941 L15.4355972,6.15384941 C15.3083419,6.15384941 15.1837818,6.11718317 15.0768718,6.04816 L7.70244454,1.30123286 C7.39410802,1.10276965 7.30497239,0.691836196 7.5034356,0.383499676 C7.70189881,0.0751631558 8.11283226,-0.0139724754 8.42116878,0.184490736 L15.795596,4.93123596 C16.1039326,5.12969917 16.1930682,5.54063263 15.994605,5.84896915 C15.8676322,6.0463409 15.6538886,6.15384941 15.4355972,6.15384941 L15.4355972,6.15384941 Z" id="路径" fill="#AEB5C4"></path>
        </g>
        <rect id="矩形" x="0" y="0" width="20" height="20"></rect>
      </g>
    </g>
  </g>
</svg>
