<?xml version="1.0" encoding="UTF-8"?>
<svg xmlns="http://www.w3.org/2000/svg" xmlns:xlink="http://www.w3.org/1999/xlink" width="20px" height="21px" viewBox="0 0 20 21" version="1.1">
  <title>icon_menu_gongzuotai备份 38</title>
  <defs>
    <filter id="filter-1">
      <feColorMatrix in="SourceGraphic" type="matrix" values="0 0 0 0 0.152941 0 0 0 0 0.141176 0 0 0 0 0.129412 0 0 0 1.000000 0"></feColorMatrix>
    </filter>
  </defs>
  <g id="页面1" stroke="none" stroke-width="1" fill="none" fill-rule="evenodd">
    <g id="icon_menu_gongzuotai备份-38" transform="translate(-46.000000, -427.000000)" filter="url(#filter-1)">
      <g transform="translate(46.000000, 427.672706)">
        <g id="我的作业" transform="translate(2.000000, 3.275814)" fill="#AEB5C4" fill-rule="nonzero">
          <path d="M11.9385705,0.101442892 L1.1902958,0.101442892 C0.570569118,0.101442892 0.0658609642,0.606151046 0.0658609642,1.22587772 L0.0658609642,13.2169881 C0.0658609642,13.8367148 0.570569118,14.3414229 1.1902958,14.3414229 L11.9385705,14.3414229 C12.5582971,14.3414229 13.0630053,13.8367148 13.0630053,13.2169881 L13.0630053,1.22416103 C13.0612886,0.604434351 12.5582971,0.101442892 11.9385705,0.101442892 Z M11.6879331,12.9663507 L1.43921648,12.9663507 L1.43921648,1.47479841 L11.6879331,1.47479841 L11.6879331,12.9663507 Z M8.99710438,4.64724966 C9.37649384,4.64724966 9.68378214,4.33996137 9.68378214,3.9605719 C9.68378214,3.58118244 9.37649384,3.27389414 8.99710438,3.27389414 L4.13176187,3.27389414 C3.75237241,3.27389414 3.44508411,3.58118244 3.44508411,3.9605719 C3.44508411,4.33996137 3.75408911,4.64724966 4.13176187,4.64724966 L8.99710438,4.64724966 Z M15.4011431,0.77953718 C15.4011431,0.400147718 15.0938548,0.0928594203 14.7144653,0.0928594203 C14.3350758,0.0928594203 14.0277875,0.400147718 14.0277875,0.77953718 L14.0277875,12.9234334 L15.4011431,12.9234334 L15.4011431,0.77953718 Z M4.13176187,11.3457912 L8.99710438,11.3457912 C9.37649384,11.3457912 9.68378214,11.0385029 9.68378214,10.6591135 C9.68378214,10.279724 9.37649384,9.97243569 8.99710438,9.97243569 L4.13176187,9.97243569 C3.75237241,9.97243569 3.44508411,10.279724 3.44508411,10.6591135 C3.44508411,11.0385029 3.75408911,11.3457912 4.13176187,11.3457912 Z M4.13176187,7.99652044 L8.99710438,7.99652044 C9.37649384,7.99652044 9.68378214,7.68923214 9.68378214,7.30984268 C9.68378214,6.93045321 9.37649384,6.62316492 8.99710438,6.62316492 L4.13176187,6.62316492 C3.75237241,6.62316492 3.44508411,6.93045321 3.44508411,7.30984268 C3.44508411,7.68923214 3.75408911,7.99652044 4.13176187,7.99652044 Z M14.0174874,13.0951028 L14.7281989,14.3276894 L15.4389103,13.0951028 L14.0174874,13.0951028 Z" id="形状"></path>
        </g>
        <rect id="矩形" x="0" y="0" width="20" height="20"></rect>
      </g>
    </g>
  </g>
</svg>
