<?xml version="1.0" encoding="UTF-8"?>
<svg xmlns="http://www.w3.org/2000/svg" xmlns:xlink="http://www.w3.org/1999/xlink" width="20px" height="21px" viewBox="0 0 20 21" version="1.1">
  <title>icon_menu_gongzuotai备份 30</title>
  <defs>
    <filter id="filter-1">
      <feColorMatrix in="SourceGraphic" type="matrix" values="0 0 0 0 0.152941 0 0 0 0 0.141176 0 0 0 0 0.129412 0 0 0 1.000000 0"></feColorMatrix>
    </filter>
  </defs>
  <g id="页面1" stroke="none" stroke-width="1" fill="none" fill-rule="evenodd">
    <g id="icon_menu_gongzuotai备份-30" transform="translate(-46.000000, -485.000000)" filter="url(#filter-1)">
      <g transform="translate(46.000000, 485.672706)">
        <g id="优惠券" transform="translate(1.782544, 2.500000)" fill="#000000" fill-rule="nonzero">
          <path d="M14.0247675,0.416227793 C15.2340648,0.416227793 16.214454,1.39659839 16.214454,2.60589568 L16.214454,5.39274742 L16.214454,5.39274742 C16.214454,5.72256273 15.9470855,5.98993127 15.6172702,5.98993127 L15.6172702,5.98993127 C14.847698,5.9899313 14.223835,6.6137943 14.223835,7.38336647 C14.223835,8.15293863 14.847698,8.77680166 15.6172702,8.77680166 L15.6172701,8.77680166 C15.9470854,8.77680165 16.214454,9.0441702 16.214454,9.37398551 L16.214454,12.1608372 C16.214454,13.3701345 15.2340647,14.3505051 14.0247674,14.3505051 L2.47922548,14.3505051 C1.26992819,14.3505051 0.289538846,13.3701345 0.289538846,12.1608372 L0.289538846,9.37398551 L0.289538846,9.3739856 C0.289538846,9.04417029 0.556907472,8.77680175 0.886722781,8.77680175 L0.88672272,8.77680175 C1.65629488,8.77680179 2.28015792,8.15293872 2.28015792,7.38336656 C2.28015795,6.61379439 1.65629488,5.98993136 0.88672272,5.98993136 L0.886722694,5.98993136 C0.556907385,5.98993134 0.289538846,5.72256282 0.289538846,5.39274751 C0.289538846,5.39274751 0.289538846,5.39274751 0.289538846,5.39274751 L0.289538846,2.60589577 C0.289538846,1.39659848 1.2699281,0.416227793 2.4792254,0.416227793 L14.0247673,0.416227793 L14.0247675,0.416227793 Z M14.0247675,1.61059519 L2.47922553,1.61059519 L2.47922557,1.61059519 C1.9295365,1.61059519 1.48390672,2.05618795 1.48390672,2.60587702 C1.48390672,2.60588324 1.48390672,2.60588946 1.48390672,2.60589568 L1.48390672,4.8648369 C2.62512505,5.13437209 3.47452576,6.15973676 3.47452576,7.38336647 C3.47452576,8.60699617 2.62512505,9.63236084 1.48390672,9.90189603 L1.48390672,12.1608372 L1.48390672,12.1608371 C1.48390672,12.7105262 1.92951784,13.1561373 2.47920691,13.1561373 C2.47921313,13.1561373 2.47921935,13.1561373 2.47922557,13.1561373 L14.0247675,13.1561373 L14.0247675,13.1561373 C14.5744566,13.1561373 15.0200864,12.7105448 15.0200864,12.1608558 C15.0200864,12.1608495 15.0200864,12.1608432 15.0200864,12.1608369 L15.0200864,9.90189573 C13.8788681,9.63236054 13.0294674,8.60699587 13.0294674,7.38336617 C13.0294674,6.15973646 13.8788681,5.13437179 15.0200864,4.8648366 L15.0200864,2.60589538 L15.0200864,2.60589538 C15.0200864,2.05620631 14.5744753,1.61059519 14.0247862,1.61059519 C14.02478,1.61059519 14.0247738,1.61059519 14.0247675,1.61059519 L14.0247675,1.61059519 Z M5.8791798,3.93860475 L5.87917983,3.93860472 C6.13254068,3.72748157 6.50907443,3.76170375 6.72021997,4.01504425 L8.25199654,5.85338142 L9.78377311,4.01504425 L9.78377308,4.01504429 C9.99496902,3.76163679 10.3716017,3.72741815 10.6250092,3.93861409 C10.8784167,4.14981002 10.9126353,4.52644268 10.7014394,4.77985018 C10.7014394,4.77985018 10.7014394,4.77985019 10.7014394,4.77985019 L9.36076162,6.3880663 L10.2426155,6.3880663 L10.2426156,6.3880663 C10.5588263,6.3880549 10.8202342,6.63453713 10.8387917,6.95020292 L10.8397994,6.98525014 L10.8397994,6.98525014 C10.8397994,7.31506545 10.5724309,7.58243399 10.2426156,7.58243399 L8.9487048,7.58243399 L8.9487048,8.37866668 L10.2426156,8.37866668 L10.2426156,8.37866668 C10.5588338,8.37865585 10.8202435,8.62514872 10.8387917,8.94082196 L10.8397994,8.97585053 L10.8397994,8.97585053 C10.8397994,9.30566584 10.5724309,9.57303438 10.2426156,9.57303438 L8.9487048,9.57303438 L8.9487048,10.3692857 L8.9487048,10.3693259 C8.9487048,10.6855441 8.70220224,10.9469464 8.38652712,10.9654834 L8.3514799,10.9664725 L8.35147987,10.9664725 C8.02166456,10.9664725 7.75429602,10.6991039 7.75429602,10.3692886 C7.75429602,10.3692886 7.75429602,10.3692886 7.75429602,10.3692886 L7.75429602,9.57303727 L6.2613364,9.57303727 L6.26133639,9.57303727 C5.94512568,9.57304868 5.68371778,9.32656643 5.66516029,9.01090065 L5.66415254,8.97585342 L5.66415254,8.97585351 C5.66415249,8.6460382 5.93152108,8.37866967 6.26133639,8.37866967 L7.75429601,8.37866967 L7.75429601,7.58243698 L6.26133639,7.58243698 L6.26133641,7.58243698 C5.94511823,7.58244782 5.68370847,7.33595494 5.66516031,7.02028169 L5.66415256,6.98525313 L5.66415256,6.98525322 C5.66415251,6.65543791 5.9315211,6.38806937 6.26133641,6.38806937 L7.14277977,6.38806937 L5.80251259,4.77964799 L5.80251255,4.77964794 C5.60075959,4.53755707 5.62184503,4.18036275 5.85067916,3.96368952 L5.8791798,3.93860475 Z" id="形状"></path>
        </g>
        <rect id="矩形" x="0" y="0" width="20" height="20"></rect>
      </g>
    </g>
  </g>
</svg>
