<?xml version="1.0" encoding="UTF-8"?>
<svg xmlns="http://www.w3.org/2000/svg" xmlns:xlink="http://www.w3.org/1999/xlink" width="20px" height="21px" viewBox="0 0 20 21" version="1.1">
  <title>icon_menu_gongzuotai备份 37</title>
  <defs>
    <filter id="filter-1">
      <feColorMatrix in="SourceGraphic" type="matrix" values="0 0 0 0 1.000000 0 0 0 0 1.000000 0 0 0 0 1.000000 0 0 0 1.000000 0"></feColorMatrix>
    </filter>
  </defs>
  <g id="页面1" stroke="none" stroke-width="1" fill="none" fill-rule="evenodd">
    <g id="icon_menu_gongzuotai备份-37" transform="translate(-46.000000, -233.000000)" filter="url(#filter-1)">
      <g transform="translate(46.000000, 233.922706)">
        <g id="svg" transform="translate(1.782544, 2.682246)" fill="#AEB5C4" fill-rule="nonzero">
          <path d="M14.8604916,0.252503685 L1.66818633,0.252503685 C0.925032803,0.252503685 0.320222895,0.857313593 0.320222895,1.60046712 L0.320222895,12.4799509 C0.320222895,13.2231044 0.925032803,13.8279143 1.66818633,13.8279143 L14.8604916,13.8279143 C15.6036451,13.8279143 16.208455,13.2231044 16.208455,12.4799509 L16.208455,1.60046712 C16.208455,0.857313593 15.6036451,0.252503685 14.8604916,0.252503685 Z M14.931437,12.4781773 C14.931437,12.5171973 14.8995116,12.5491227 14.8604916,12.5491227 L1.66818633,12.5491227 C1.62916633,12.5491227 1.59724088,12.5171973 1.59724088,12.4781773 L1.59724088,11.4193165 L14.931437,11.4193165 L14.931437,12.4781773 Z M1.59724088,10.1422985 L1.59724088,1.59869348 C1.59724088,1.55967349 1.62916633,1.52774804 1.66818633,1.52774804 L14.8604916,1.52774804 C14.8995116,1.52774804 14.931437,1.55967349 14.931437,1.59869348 L14.931437,10.1422985 L1.59724088,10.1422985 Z M11.1234403,5.04664205 L7.35091637,2.65578059 C7.04407733,2.46068062 6.65565102,2.45003881 6.33817016,2.62385514 C6.0206893,2.79944512 5.82204206,3.1328887 5.82204206,3.4964841 L5.82204206,8.27111246 C5.82204206,8.63470786 6.01891566,8.96815145 6.33817016,9.14374142 C6.48892923,9.22710232 6.65387739,9.26789595 6.81882554,9.26789595 C7.0032837,9.26789595 7.18951549,9.2164605 7.35091637,9.11358961 L11.1234403,6.72804906 C11.4143167,6.54536454 11.5863594,6.22965732 11.588133,5.88557192 C11.5863594,5.54503379 11.4143167,5.22932656 11.1234403,5.04664205 Z M7.09906004,7.76207891 L7.09906004,4.0072913 L10.0663532,5.88734555 L7.09906004,7.76207891 L7.09906004,7.76207891 Z" id="形状"></path>
        </g>
        <rect id="矩形" x="0" y="0" width="20" height="20"></rect>
      </g>
    </g>
  </g>
</svg>
